# xmcd CD database file
# Copyright (C) 1995-1998 Ti Kan
#
# Track frame offsets:
#	180
#	12403
#	23860
#	34496
#	47319
#	58288
#	69795
#	80832
#	93577
#	106953
#	118149
#	129097
#	142722
#	154604
#	174464
#	189351
#	202774
#	214038
#	229541
#	242374
#	254632
#	269194
#
# Disc length: 3747 seconds
#
# Revision: 1
# Processed by: cddbd v1.4PL0 Copyright (c) Steve Scherf et al.
# Submitted via: CDex 1.30Release
#
DISCID=2a0ea116
DTITLE=FOREVER LOVE SONG - FOREVER LOVE SONG
DYEAR=2001
DGENRE=Blues
TTITLE0=IF YOU LOVE ME - BRENDA LEE
TTITLE1=THE WEDDING - JULIE ROGGERS
TTITLE2=ALL I HAVE TO DO IS DREAM - THE EVERLY BRITHERS
TTITLE3=ALL FOR THE LOVE OF THE GIRL - JOHNY HARTON
TTITLE4=ONE WAY TICKET - NEIL SADAKA
TTITLE5=MORE THAN I CAN SAY - BOBBY VEE
TTITLE6=CRAZY LOVE - PAUL ANKA
TTITLE7=500 MILES - PETER, PAIL and MARY
TTITLE8=COTTON FIELD - C.C.R.
TTITLE9=RUN AWAY - DEL SHANNON
TTITLE10=SUMMER KISSES WINTER TEARS - ELVIS PRESLEY
TTITLE11=WHISPERING PINES - JOHNY HARTON
TTITLE12=INTER LUDE - SAM HUI
TTITLE13=DON'T CRY JONI - CONWAY TWITTY
TTITLE14=IT'S NOW OR NEVER - ELVIS PRESLEY
TTITLE15=LEMON TREE - PETER, PAUL and MARY
TTITLE16=BLOWNIN IN THE WIND - THE BROTHERS FOUR
TTITLE17=TOO YOUNG - NAT KING COLE
TTITLE18=DECTROIT CITY - BOBBY BARE
TTITLE19=THE GREAT PRETENDER - THE PLATTERS
TTITLE20=SILENCE IS GOLDEN - TREMELOES
TTITLE21=WILL YOU LOVE ME TOMORROW - THE SHIRELLES
EXTD=YEAR: 2001 ID3G:   0
EXTT0=
EXTT1=
EXTT2=
EXTT3=
EXTT4=
EXTT5=
EXTT6=
EXTT7=
EXTT8=
EXTT9=
EXTT10=
EXTT11=
EXTT12=
EXTT13=
EXTT14=
EXTT15=
EXTT16=
EXTT17=
EXTT18=
EXTT19=
EXTT20=
EXTT21=
PLAYORDER=
